PathFileType	4	(X/Y/Z)	C:\Users\italobelli\Desktop\GitHub\PTbot_officialCBL\Personal_Results\SHRUG02_noisy2.trc
DataRate	CameraRate	NumFrames	NumMarkers	Units	OrigDataRate	OrigDataStartFrame	OrigNumFrames
112.250000	112.250000	38	9	m	112.250000	57	450
Frame#	Time		gu		centelbow		EpL		centpxt8		centijc7		ij		ts		aa		ai
			X1	Y1	Z1	X2	Y2	Z2	X3	Y3	Z3	X4	Y4	Z4	X5	Y5	Z5	X6	Y6	Z6	X7	Y7	Z7	X8	Y8	Z8	X9	Y9	Z9

57	0.49889	-0.077483	-0.012793	0.16576	-0.099032	-0.26134	0.1989	-0.077374	-0.25644	0.22228	-0.046816	-0.15316	-0.008669	-0.046816	0.031938	-0.008669	0	0	0	-0.13874	0.029134	0.056677	-0.10511	0.024997	0.17103	-0.15977	-0.082158	0.064269
58	0.5078	-0.077507	-0.012729	0.16576	-0.099036	-0.2613	0.19884	-0.077382	-0.2564	0.22222	-0.046816	-0.15316	-0.008669	-0.046816	0.031938	-0.008669	0	0	0	-0.13867	0.029333	0.056669	-0.10509	0.025168	0.17103	-0.15976	-0.081939	0.064268
59	0.5167	-0.077533	-0.012658	0.16577	-0.099052	-0.26125	0.19877	-0.077402	-0.25635	0.22216	-0.046816	-0.15316	-0.008669	-0.046816	0.031938	-0.008669	0	0	0	-0.1386	0.02955	0.056661	-0.10506	0.025352	0.17102	-0.15974	-0.081705	0.064267
60	0.52561	-0.077561	-0.01258	0.16577	-0.099079	-0.26118	0.19871	-0.077435	-0.25629	0.2221	-0.046816	-0.15316	-0.008669	-0.046816	0.031938	-0.008669	0	0	0	-0.13851	0.029783	0.056651	-0.10502	0.025548	0.17102	-0.15972	-0.081459	0.064268
61	0.53452	-0.077592	-0.012493	0.16578	-0.099116	-0.26111	0.19865	-0.077479	-0.25621	0.22204	-0.046816	-0.15316	-0.008669	-0.046816	0.031938	-0.008669	0	0	0	-0.13842	0.030031	0.056641	-0.10499	0.025757	0.17101	-0.15969	-0.081199	0.06427
62	0.54343	-0.077624	-0.0124	0.16578	-0.099163	-0.26102	0.19858	-0.077534	-0.25612	0.22199	-0.046816	-0.15316	-0.008669	-0.046816	0.031938	-0.008669	0	0	0	-0.13833	0.030295	0.056631	-0.10495	0.025978	0.17101	-0.15967	-0.080926	0.064273
63	0.55234	-0.077658	-0.012298	0.16578	-0.099221	-0.26092	0.19852	-0.0776	-0.25603	0.22193	-0.046816	-0.15316	-0.008669	-0.046816	0.031938	-0.008669	0	0	0	-0.13822	0.030573	0.05662	-0.10492	0.026211	0.171	-0.15964	-0.080641	0.064277
64	0.56125	-0.077694	-0.01219	0.16579	-0.099287	-0.26082	0.19845	-0.077676	-0.25592	0.22187	-0.046816	-0.15316	-0.008669	-0.046816	0.031938	-0.008669	0	0	0	-0.13811	0.030866	0.056608	-0.10488	0.026455	0.171	-0.15961	-0.080344	0.064283
65	0.57016	-0.077731	-0.012074	0.16579	-0.099362	-0.2607	0.19838	-0.077762	-0.2558	0.22181	-0.046816	-0.15316	-0.008669	-0.046816	0.031938	-0.008669	0	0	0	-0.138	0.031171	0.056595	-0.10483	0.026712	0.17099	-0.15958	-0.080036	0.064289
66	0.57906	-0.07777	-0.011951	0.1658	-0.099446	-0.26057	0.19832	-0.077857	-0.25567	0.22175	-0.046816	-0.15316	-0.008669	-0.046816	0.031938	-0.008669	0	0	0	-0.13788	0.031489	0.056582	-0.10479	0.026979	0.17098	-0.15955	-0.079717	0.064297
67	0.58797	-0.077811	-0.011821	0.1658	-0.099538	-0.26043	0.19825	-0.077961	-0.25553	0.22168	-0.046816	-0.15316	-0.008669	-0.046816	0.031938	-0.008669	0	0	0	-0.13775	0.031819	0.056568	-0.10474	0.027257	0.17098	-0.15952	-0.079388	0.064306
68	0.59688	-0.077853	-0.011684	0.16581	-0.099638	-0.26028	0.19818	-0.078073	-0.25538	0.22162	-0.046816	-0.15316	-0.008669	-0.046816	0.031938	-0.008669	0	0	0	-0.13762	0.032161	0.056553	-0.10469	0.027547	0.17097	-0.15948	-0.079049	0.064316
69	0.60579	-0.077896	-0.011539	0.16581	-0.099744	-0.26012	0.19811	-0.078192	-0.25522	0.22156	-0.046816	-0.15316	-0.008669	-0.046816	0.031938	-0.008669	0	0	0	-0.13748	0.032514	0.056537	-0.10464	0.027846	0.17097	-0.15944	-0.0787	0.064327
70	0.6147	-0.077941	-0.011388	0.16582	-0.099858	-0.25996	0.19804	-0.07832	-0.25505	0.2215	-0.046816	-0.15316	-0.008669	-0.046816	0.031938	-0.008669	0	0	0	-0.13734	0.032876	0.056521	-0.10459	0.028156	0.17096	-0.1594	-0.078342	0.064339
71	0.62361	-0.077986	-0.011231	0.16582	-0.099978	-0.25978	0.19798	-0.078454	-0.25487	0.22144	-0.046816	-0.15316	-0.008669	-0.046816	0.031938	-0.008669	0	0	0	-0.1372	0.033248	0.056504	-0.10453	0.028476	0.17095	-0.15936	-0.077975	0.064352
72	0.63252	-0.078033	-0.011066	0.16583	-0.1001	-0.25959	0.19791	-0.078595	-0.25469	0.22139	-0.046816	-0.15316	-0.008669	-0.046816	0.031938	-0.008669	0	0	0	-0.13705	0.03363	0.056487	-0.10448	0.028806	0.17095	-0.15932	-0.0776	0.064366
73	0.64143	-0.07808	-0.010895	0.16583	-0.10023	-0.2594	0.19784	-0.078741	-0.25449	0.22133	-0.046816	-0.15316	-0.008669	-0.046816	0.031938	-0.008669	0	0	0	-0.1369	0.034019	0.056469	-0.10442	0.029145	0.17094	-0.15928	-0.077218	0.064382
74	0.65033	-0.078129	-0.010717	0.16584	-0.10037	-0.25919	0.19777	-0.078893	-0.25428	0.22127	-0.046816	-0.15316	-0.008669	-0.046816	0.031938	-0.008669	0	0	0	-0.13674	0.034416	0.05645	-0.10436	0.029494	0.17093	-0.15923	-0.076829	0.064398
75	0.65924	-0.078178	-0.010533	0.16584	-0.10051	-0.25898	0.1977	-0.07905	-0.25406	0.22121	-0.046816	-0.15316	-0.008669	-0.046816	0.031938	-0.008669	0	0	0	-0.13658	0.034821	0.05643	-0.10429	0.029852	0.17093	-0.15919	-0.076432	0.064415
76	0.66815	-0.078228	-0.010343	0.16585	-0.10066	-0.25875	0.19764	-0.079212	-0.25384	0.22115	-0.046816	-0.15316	-0.008669	-0.046816	0.031938	-0.008669	0	0	0	-0.13642	0.035231	0.05641	-0.10423	0.030219	0.17092	-0.15914	-0.07603	0.064434
77	0.67706	-0.078278	-0.010146	0.16585	-0.10081	-0.25852	0.19757	-0.079378	-0.2536	0.2211	-0.046816	-0.15316	-0.008669	-0.046816	0.031938	-0.008669	0	0	0	-0.13626	0.035648	0.056389	-0.10417	0.030594	0.17091	-0.15909	-0.075621	0.064453
78	0.68597	-0.078329	-0.0099427	0.16586	-0.10096	-0.25828	0.1975	-0.079548	-0.25336	0.22104	-0.046816	-0.15316	-0.008669	-0.046816	0.031938	-0.008669	0	0	0	-0.13609	0.03607	0.056367	-0.1041	0.030977	0.1709	-0.15904	-0.075207	0.064474
79	0.69488	-0.07838	-0.0097335	0.16586	-0.10111	-0.25803	0.19744	-0.07972	-0.25311	0.22098	-0.046816	-0.15316	-0.008669	-0.046816	0.031938	-0.008669	0	0	0	-0.13593	0.036496	0.056345	-0.10403	0.031369	0.1709	-0.15898	-0.074789	0.064496
80	0.70379	-0.078431	-0.0095182	0.16587	-0.10127	-0.25778	0.19737	-0.079896	-0.25285	0.22093	-0.046816	-0.15316	-0.008669	-0.046816	0.031938	-0.008669	0	0	0	-0.13576	0.036927	0.056322	-0.10396	0.031769	0.17089	-0.15893	-0.074365	0.064518
81	0.71269	-0.078483	-0.009297	0.16587	-0.10143	-0.25751	0.19731	-0.080073	-0.25258	0.22088	-0.046816	-0.15316	-0.008669	-0.046816	0.031938	-0.008669	0	0	0	-0.13559	0.037361	0.056298	-0.10389	0.032176	0.17088	-0.15887	-0.073938	0.064542
82	0.7216	-0.078534	-0.0090699	0.16588	-0.10159	-0.25724	0.19724	-0.080253	-0.2523	0.22082	-0.046816	-0.15316	-0.008669	-0.046816	0.031938	-0.008669	0	0	0	-0.13542	0.037798	0.056274	-0.10382	0.032591	0.17087	-0.15882	-0.073507	0.064566
83	0.73051	-0.078586	-0.0088369	0.16588	-0.10176	-0.25696	0.19718	-0.080433	-0.25201	0.22077	-0.046816	-0.15316	-0.008669	-0.046816	0.031938	-0.008669	0	0	0	-0.13525	0.038237	0.056249	-0.10374	0.033013	0.17086	-0.15876	-0.073074	0.064592
84	0.73942	-0.078637	-0.0085982	0.16589	-0.10192	-0.25667	0.19712	-0.080615	-0.25172	0.22072	-0.046816	-0.15316	-0.008669	-0.046816	0.031938	-0.008669	0	0	0	-0.13508	0.038677	0.056223	-0.10367	0.033441	0.17085	-0.1587	-0.072637	0.064618
85	0.74833	-0.078689	-0.0083539	0.16589	-0.10208	-0.25637	0.19706	-0.080797	-0.25142	0.22067	-0.046816	-0.15316	-0.008669	-0.046816	0.031938	-0.008669	0	0	0	-0.13491	0.039118	0.056196	-0.10359	0.033877	0.17084	-0.15864	-0.072199	0.064646
86	0.75724	-0.07874	-0.008104	0.1659	-0.10225	-0.25607	0.197	-0.080979	-0.25111	0.22063	-0.046816	-0.15316	-0.008669	-0.046816	0.031938	-0.008669	0	0	0	-0.13474	0.03956	0.056169	-0.10351	0.034319	0.17083	-0.15858	-0.071758	0.064674
87	0.76615	-0.07879	-0.0078486	0.16591	-0.10241	-0.25575	0.19694	-0.08116	-0.25079	0.22058	-0.046816	-0.15316	-0.008669	-0.046816	0.031938	-0.008669	0	0	0	-0.13457	0.040001	0.056141	-0.10343	0.034767	0.17082	-0.15851	-0.071317	0.064704
88	0.77506	-0.078841	-0.0075878	0.16591	-0.10257	-0.25544	0.19689	-0.081341	-0.25047	0.22054	-0.046816	-0.15316	-0.008669	-0.046816	0.031938	-0.008669	0	0	0	-0.13441	0.040442	0.056113	-0.10335	0.035221	0.17081	-0.15845	-0.070874	0.064734
89	0.78396	-0.07889	-0.0073217	0.16591	-0.10274	-0.25511	0.19683	-0.08152	-0.25014	0.22049	-0.046816	-0.15316	-0.008669	-0.046816	0.031938	-0.008669	0	0	0	-0.13424	0.04088	0.056084	-0.10327	0.035681	0.1708	-0.15838	-0.070432	0.064765
90	0.79287	-0.078939	-0.0070503	0.16592	-0.1029	-0.25478	0.19678	-0.081697	-0.2498	0.22045	-0.046816	-0.15316	-0.008669	-0.046816	0.031938	-0.008669	0	0	0	-0.13408	0.041317	0.056054	-0.10319	0.036146	0.17079	-0.15832	-0.069989	0.064797
91	0.80178	-0.078987	-0.0067738	0.16592	-0.10305	-0.25444	0.19672	-0.081871	-0.24946	0.22041	-0.046816	-0.15316	-0.008669	-0.046816	0.031938	-0.008669	0	0	0	-0.13392	0.041751	0.056023	-0.1031	0.036617	0.17078	-0.15825	-0.069547	0.06483
92	0.81069	-0.079035	-0.0064922	0.16593	-0.10321	-0.25409	0.19667	-0.082043	-0.2491	0.22037	-0.046816	-0.15316	-0.008669	-0.046816	0.031938	-0.008669	0	0	0	-0.13376	0.042181	0.055992	-0.10302	0.037093	0.17077	-0.15818	-0.069106	0.064864
93	0.8196	-0.079081	-0.0062056	0.16593	-0.10336	-0.25374	0.19663	-0.082211	-0.24875	0.22034	-0.046816	-0.15316	-0.008669	-0.046816	0.031938	-0.008669	0	0	0	-0.1336	0.042608	0.05596	-0.10293	0.037573	0.17076	-0.15811	-0.068667	0.064899
94	0.82851	-0.079127	-0.005914	0.16594	-0.10351	-0.25338	0.19658	-0.082376	-0.24838	0.2203	-0.046816	-0.15316	-0.008669	-0.046816	0.031938	-0.008669	0	0	0	-0.13345	0.043029	0.055927	-0.10284	0.038058	0.17075	-0.15804	-0.06823	0.064935
